The Cleveland Show is an American animated television series that premiered on September 27, 2009, as a part of the "Animation Domination" lineup on Fox. The series was created by Seth MacFarlane, Mike Henry, and Richard Appel as a spin-off from Family Guy, which was also created by MacFarlane.

Input #0, avi, from 'The Cleveland Show - S01E01 - Pilot.avi':
  Duration: 00:23:13.99, start: 0.000000, bitrate: 824 kb/s
    Stream #0.0: Video: mpeg4, yuv420p, 640x368 [PAR 1:1 DAR 40:23], 23.98 tbr, 23.98 tbn, 23.98 tbc
    Stream #0.1: Audio: mp3, 48000 Hz, stereo, s16, 128 kb/s

The Cleveland Show - S01E01 - Pilot.avi
The Cleveland Show - S01E02 - Da Daggone Daddy-Daughter Dinner Dance.avi
The Cleveland Show - S01E03 - The One About Friends.avi
The Cleveland Show - S01E04 - Birth of a Salesman.avi
The Cleveland Show - S01E05 - Cleveland Jr.'s Cherry Bomb.avi
The Cleveland Show - S01E06 - Ladies' Night.avi
The Cleveland Show - S01E07 - A Brown Thanksgiving.avi
The Cleveland Show - S01E09 - A Cleveland Brown Christmas.avi
The Cleveland Show - S01E10 - Fields of Streams.avi
The Cleveland Show - S01E11 - Love Rollercoaster.avi
The Cleveland Show - S01E12 - Our Gang.avi
The Cleveland Show - S01E13 - Buried Pleasure.avi
The Cleveland Show - S01E14 - The Curious Case of Jr. Working at the Stool.avi
The Cleveland Show - S01E15 - Once Upon a Tyne in New York.avi
The Cleveland Show - S01E16 - The Brown Knight.avi
The Cleveland Show - S01E17 - Gone With the Wind.avi
The Cleveland Show - S01E18 - Brotherly Love.avi
The Cleveland Show - S01E19 - Brown History Month.avi
The Cleveland Show - S01E20 - Cleveland's Angels.avi
The Cleveland Show - S01E21 - You're the Best Man, Cleveland Brown.avi